<svg width="50" height="50" viewBox="0 0 50 50" fill="none" xmlns="http://www.w3.org/2000/svg">
<path d="M6.25 20.8333H4.6875C4.6875 21.6958 5.3875 22.3958 6.25 22.3958V20.8333ZM6.25 29.1667V27.6042C5.8356 27.6042 5.43817 27.7688 5.14515 28.0618C4.85212 28.3548 4.6875 28.7523 4.6875 29.1667H6.25ZM43.75 20.8333V22.3958C44.1644 22.3958 44.5618 22.2312 44.8549 21.9382C45.1479 21.6452 45.3125 21.2477 45.3125 20.8333H43.75ZM43.75 29.1667H45.3125C45.3125 28.7523 45.1479 28.3548 44.8549 28.0618C44.5618 27.7688 44.1644 27.6042 43.75 27.6042V29.1667ZM10.4167 11.9792H20.8333V8.85416H10.4167V11.9792ZM20.8333 11.9792H39.5833V8.85416H20.8333V11.9792ZM39.5833 38.0208H20.8333V41.1458H39.5833V38.0208ZM20.8333 38.0208H10.4167V41.1458H20.8333V38.0208ZM19.2708 10.4167V39.5833H22.3958V10.4167H19.2708ZM8.09167 23.1583C8.33356 23.4002 8.52544 23.6873 8.65636 24.0033C8.78727 24.3193 8.85465 24.6579 8.85465 25C8.85465 25.342 8.78727 25.6807 8.65636 25.9967C8.52544 26.3127 8.33356 26.5998 8.09167 26.8417L10.3 29.05C11.3744 27.9756 11.9779 26.5184 11.9779 24.9989C11.9779 23.4795 11.3744 22.0223 10.3 20.9479L8.09167 23.1583ZM41.9083 26.8417C41.6664 26.5998 41.4746 26.3127 41.3436 25.9967C41.2127 25.6807 41.1453 25.342 41.1453 25C41.1453 24.6579 41.2127 24.3193 41.3436 24.0033C41.4746 23.6873 41.6664 23.4002 41.9083 23.1583L39.7 20.95C38.6256 22.0244 38.0221 23.4816 38.0221 25.001C38.0221 26.5205 38.6256 27.9777 39.7 29.0521L41.9083 26.8417ZM6.25 22.3958C6.91875 22.3958 7.58333 22.65 8.09167 23.1583L10.3 20.9479C9.76891 20.4149 9.13769 19.9943 8.44264 19.7061C7.74759 19.4179 7.00242 19.27 6.25 19.2708V22.3958ZM7.8125 20.8333V14.5833H4.6875V20.8333H7.8125ZM7.8125 35.4167V29.1667H4.6875V35.4167H7.8125ZM8.09167 26.8417C7.85049 27.0844 7.56349 27.2768 7.24734 27.4077C6.93118 27.5386 6.59218 27.6054 6.25 27.6042V30.7292C7.71458 30.7292 9.18333 30.1687 10.3021 29.05L8.09167 26.8417ZM41.9083 23.1583C42.4167 22.65 43.0812 22.3958 43.75 22.3958V19.2708C42.2854 19.2708 40.8187 19.8312 39.7 20.95L41.9083 23.1583ZM42.1875 14.5833V20.8333H45.3125V14.5833H42.1875ZM42.1875 29.1667V35.4167H45.3125V29.1667H42.1875ZM43.75 27.6042C43.0812 27.6042 42.4167 27.35 41.9083 26.8417L39.7 29.0521C40.2311 29.5851 40.8623 30.0057 41.5574 30.2939C42.2524 30.5821 42.9976 30.73 43.75 30.7292V27.6042ZM10.4167 38.0208C8.97917 38.0208 7.8125 36.8542 7.8125 35.4167H4.6875C4.6875 36.9361 5.29111 38.3934 6.36553 39.4678C7.43996 40.5422 8.8972 41.1458 10.4167 41.1458V38.0208ZM39.5833 41.1458C41.1028 41.1458 42.56 40.5422 43.6345 39.4678C44.7089 38.3934 45.3125 36.9361 45.3125 35.4167H42.1875C42.1875 36.8542 41.0208 38.0208 39.5833 38.0208V41.1458ZM39.5833 11.9792C41.0208 11.9792 42.1875 13.1458 42.1875 14.5833H45.3125C45.3125 13.0639 44.7089 11.6066 43.6345 10.5322C42.56 9.45776 41.1028 8.85416 39.5833 8.85416V11.9792ZM10.4167 8.85416C8.8972 8.85416 7.43996 9.45776 6.36553 10.5322C5.29111 11.6066 4.6875 13.0639 4.6875 14.5833H7.8125C7.8125 13.1458 8.97917 11.9792 10.4167 11.9792V8.85416Z" fill="black"/>
</svg>
