<svg width="27" height="27" viewBox="0 0 27 27" fill="none" xmlns="http://www.w3.org/2000/svg">
<path d="M13.5 2.18695C11.0393 2.18974 8.68022 3.16848 6.94025 4.90845C5.20028 6.64842 4.22154 9.00752 4.21875 11.4682C4.21875 19.41 12.6562 25.408 13.0159 25.659C13.1578 25.7584 13.3268 25.8117 13.5 25.8117C13.6732 25.8117 13.8422 25.7584 13.9841 25.659C14.3438 25.408 22.7812 19.41 22.7812 11.4682C22.7785 9.00752 21.7997 6.64842 20.0598 4.90845C18.3198 3.16848 15.9607 2.18974 13.5 2.18695ZM13.5 8.0932C14.1675 8.0932 14.82 8.29114 15.375 8.66199C15.9301 9.03284 16.3626 9.55994 16.6181 10.1766C16.8735 10.7933 16.9404 11.4719 16.8102 12.1266C16.6799 12.7813 16.3585 13.3827 15.8865 13.8547C15.4145 14.3267 14.8131 14.6481 14.1584 14.7784C13.5037 14.9086 12.8251 14.8417 12.2084 14.5863C11.5917 14.3308 11.0646 13.8983 10.6938 13.3433C10.3229 12.7882 10.125 12.1357 10.125 11.4682C10.125 10.5731 10.4806 9.71465 11.1135 9.08172C11.7464 8.44878 12.6049 8.0932 13.5 8.0932Z" fill="white"/>
</svg>
