<svg width="55" height="55" viewBox="0 0 55 55" fill="none" xmlns="http://www.w3.org/2000/svg">
<path fill-rule="evenodd" clip-rule="evenodd" d="M36.6667 20.625C36.6667 23.0561 35.7009 25.3877 33.9819 27.1068C32.2628 28.8259 29.9312 29.7916 27.5 29.7916C25.0689 29.7916 22.7373 28.8259 21.0182 27.1068C19.2991 25.3877 18.3334 23.0561 18.3334 20.625C18.3334 18.1938 19.2991 15.8623 21.0182 14.1432C22.7373 12.4241 25.0689 11.4583 27.5 11.4583C29.9312 11.4583 32.2628 12.4241 33.9819 14.1432C35.7009 15.8623 36.6667 18.1938 36.6667 20.625ZM32.0834 20.625C32.0834 21.8406 31.6005 23.0063 30.7409 23.8659C29.8814 24.7254 28.7156 25.2083 27.5 25.2083C26.2845 25.2083 25.1187 24.7254 24.2591 23.8659C23.3996 23.0063 22.9167 21.8406 22.9167 20.625C22.9167 19.4094 23.3996 18.2436 24.2591 17.3841C25.1187 16.5245 26.2845 16.0416 27.5 16.0416C28.7156 16.0416 29.8814 16.5245 30.7409 17.3841C31.6005 18.2436 32.0834 19.4094 32.0834 20.625Z" fill="black"/>
<path fill-rule="evenodd" clip-rule="evenodd" d="M27.5 2.29166C13.5781 2.29166 2.29169 13.5781 2.29169 27.5C2.29169 41.4219 13.5781 52.7083 27.5 52.7083C41.4219 52.7083 52.7084 41.4219 52.7084 27.5C52.7084 13.5781 41.4219 2.29166 27.5 2.29166ZM6.87502 27.5C6.87502 32.2896 8.50898 36.6987 11.2475 40.2004C13.1712 37.6753 15.6525 35.6289 18.4975 34.2208C21.3426 32.8128 24.4746 32.0813 27.649 32.0833C30.7826 32.0797 33.8756 32.7917 36.6922 34.165C39.5088 35.5384 41.9746 37.5368 43.9015 40.0079C45.8871 37.4037 47.224 34.364 47.8017 31.1405C48.3793 27.917 48.181 24.6023 47.2232 21.4706C46.2655 18.3389 44.5757 15.4803 42.2938 13.1313C40.012 10.7823 37.2035 9.0105 34.1009 7.96241C30.9983 6.91431 27.6907 6.62009 24.4518 7.10409C21.2129 7.5881 18.1358 8.83641 15.4751 10.7457C12.8144 12.6551 10.6467 15.1705 9.15117 18.084C7.65567 20.9974 6.87543 24.2251 6.87502 27.5ZM27.5 48.125C22.7652 48.1327 18.1733 46.5038 14.5017 43.5142C15.9794 41.3981 17.9465 39.6704 20.2356 38.4781C22.5247 37.2859 25.068 36.6644 27.649 36.6667C30.1977 36.6644 32.7102 37.2704 34.9777 38.4342C37.2452 39.5981 39.2022 41.2862 40.6863 43.3583C36.9863 46.4452 32.3186 48.1325 27.5 48.125Z" fill="black"/>
</svg>
