<svg width="50" height="50" viewBox="0 0 50 50" fill="none" xmlns="http://www.w3.org/2000/svg">
<path fill-rule="evenodd" clip-rule="evenodd" d="M13.0208 11.4583C13.0207 10.0659 13.4498 8.70726 14.2498 7.56757C15.0498 6.42788 16.1818 5.56255 17.4914 5.0895C18.801 4.61644 20.2246 4.55866 21.5683 4.92402C22.9119 5.28939 24.1103 6.06014 25 7.13125C26.0987 5.79921 27.6649 4.93728 29.3781 4.72176C31.0913 4.50624 32.8221 4.95342 34.2166 5.97183C35.611 6.99024 36.5636 8.50292 36.8797 10.2005C37.1957 11.898 36.8512 13.6522 35.9166 15.1042H37.5C39.0194 15.1042 40.4767 15.7078 41.5511 16.7822C42.6255 17.8566 43.2291 19.3139 43.2291 20.8333V25C43.2296 25.797 42.9689 26.5722 42.4869 27.2069C42.0049 27.8417 41.3282 28.301 40.5604 28.5146C40.8604 32.3187 40.6854 36.15 40.0396 39.9167C39.8515 41.0111 39.313 42.0148 38.5052 42.7768C37.6974 43.5388 36.6639 44.0178 35.5604 44.1417L33.6541 44.3542C27.9019 44.9971 22.096 44.9971 16.3437 44.3542L14.4396 44.1417C13.336 44.0178 12.3026 43.5388 11.4948 42.7768C10.6869 42.0148 10.1485 41.0111 9.9604 39.9167C9.31237 36.1525 9.1374 32.3221 9.43956 28.5146C8.67172 28.301 7.99503 27.8417 7.51304 27.2069C7.03106 26.5722 6.77035 25.797 6.77081 25V20.8333C6.77081 19.3139 7.37442 17.8566 8.44885 16.7822C9.52327 15.7078 10.9805 15.1042 12.5 15.1042H14.0833C13.3875 14.0156 13.0188 12.7502 13.0208 11.4583ZM23.4375 11.4583C23.4375 10.4914 23.0534 9.56406 22.3696 8.88034C21.6859 8.19661 20.7586 7.8125 19.7916 7.8125C18.8247 7.8125 17.8974 8.19661 17.2137 8.88034C16.5299 9.56406 16.1458 10.4914 16.1458 11.4583C16.1458 12.4253 16.5299 13.3526 17.2137 14.0363C17.8974 14.7201 18.8247 15.1042 19.7916 15.1042C20.7586 15.1042 21.6859 14.7201 22.3696 14.0363C23.0534 13.3526 23.4375 12.4253 23.4375 11.4583ZM30.2083 15.1042C30.6871 15.1042 31.1612 15.0099 31.6035 14.8266C32.0458 14.6434 32.4478 14.3749 32.7863 14.0363C33.1249 13.6978 33.3934 13.2959 33.5766 12.8535C33.7598 12.4112 33.8541 11.9371 33.8541 11.4583C33.8541 10.9796 33.7598 10.5055 33.5766 10.0631C33.3934 9.6208 33.1249 9.21888 32.7863 8.88034C32.4478 8.54179 32.0458 8.27324 31.6035 8.09002C31.1612 7.9068 30.6871 7.8125 30.2083 7.8125C29.2414 7.8125 28.314 8.19661 27.6303 8.88034C26.9466 9.56406 26.5625 10.4914 26.5625 11.4583C26.5625 12.4253 26.9466 13.3526 27.6303 14.0363C28.314 14.7201 29.2414 15.1042 30.2083 15.1042ZM9.89581 20.8333C9.89581 19.3958 11.0625 18.2292 12.5 18.2292H23.4375V25.5208H10.4166C10.2785 25.5208 10.146 25.466 10.0484 25.3683C9.95069 25.2706 9.89581 25.1381 9.89581 25V20.8333ZM26.5625 28.6458H37.4354C37.7271 32.2292 37.5687 35.8396 36.9604 39.3875C36.8868 39.8144 36.6766 40.2059 36.3614 40.5031C36.0462 40.8003 35.643 40.9871 35.2125 41.0354L33.3083 41.25C31.0653 41.5 28.8166 41.6486 26.5625 41.6958V28.6458ZM26.5625 25.5208H39.5833C39.7214 25.5208 39.8539 25.466 39.9516 25.3683C40.0493 25.2706 40.1041 25.1381 40.1041 25V20.8333C40.1041 19.3958 38.9375 18.2292 37.5 18.2292H26.5625V25.5208ZM23.4375 28.6458V41.6958C21.1833 41.6487 18.9324 41.4999 16.6916 41.25L14.7875 41.0354C14.3573 40.9872 13.9543 40.8007 13.6391 40.5039C13.3239 40.2072 13.1135 39.8161 13.0396 39.3896C12.4314 35.8424 12.2718 32.2328 12.5646 28.6458H23.4375Z" fill="black"/>
</svg>
