<svg width="50" height="50" viewBox="0 0 50 50" fill="none" xmlns="http://www.w3.org/2000/svg">
<path fill-rule="evenodd" clip-rule="evenodd" d="M32.1906 18.1323C31.5357 17.7291 31.0051 17.1526 30.6576 16.4664C30.3101 15.7803 30.1593 15.0113 30.2219 14.2448L26.0417 13.5104L26.4021 11.4583L30.9209 12.2521C31.3024 11.6868 31.8169 11.2239 32.4192 10.9039C33.0214 10.5838 33.693 10.4165 34.375 10.4167H37.9011C38.2552 10.4167 38.5417 10.7031 38.5417 11.0573V18.1094C38.5417 18.4635 38.2542 18.75 37.9011 18.75H37.5V27.3437C37.7257 27.2792 37.9552 27.226 38.1886 27.1844C39.7479 26.9095 41.3542 27.1899 42.7282 27.9766C44.1022 28.7633 45.1571 30.0067 45.7094 31.4906C46.0354 32.3656 45.6886 33.1646 45.0906 33.6406C45.1421 35.0236 44.6914 36.3784 43.8217 37.4549C42.952 38.5313 41.7221 39.2567 40.3592 39.4969C38.9963 39.7372 37.5925 39.4761 36.4072 38.7619C35.2218 38.0477 34.3349 36.9286 33.9104 35.6115C33.3469 35.4219 32.8573 34.9969 32.6719 34.375H20.8115C20.6836 35.8001 20.0271 37.1258 18.9711 38.0913C17.9151 39.0568 16.5361 39.5922 15.1052 39.5922C13.6744 39.5922 12.2953 39.0568 11.2393 38.0913C10.1833 37.1258 9.52683 35.8001 9.39898 34.375H4.65627C4.59375 34.3768 4.53149 34.3663 4.47304 34.344C4.41459 34.3217 4.3611 34.2882 4.31564 34.2452C4.27017 34.2022 4.23361 34.1508 4.20806 34.0937C4.1825 34.0366 4.16844 33.975 4.16669 33.9125C4.16669 30.2292 6.27815 27.0135 9.41669 25.2917C9.38905 25.1969 9.37502 25.0987 9.37502 25V21.875C9.37502 21.0462 9.70426 20.2513 10.2903 19.6653C10.8764 19.0792 11.6712 18.75 12.5 18.75H21.875C22.7038 18.75 23.4987 19.0792 24.0847 19.6653C24.6708 20.2513 25 21.0462 25 21.875V25C25 25.2763 24.8903 25.5412 24.6949 25.7366C24.4996 25.9319 24.2346 26.0417 23.9584 26.0417V27.0833H30.4584L32.1906 18.1323ZM32.2917 14.5833C32.2917 14.0308 32.5112 13.5009 32.9019 13.1102C33.2926 12.7195 33.8225 12.5 34.375 12.5H36.4584V16.6667H34.375C33.8225 16.6667 33.2926 16.4472 32.9019 16.0565C32.5112 15.6658 32.2917 15.1359 32.2917 14.5833ZM30.0542 29.1667H23.9584V32.2917H29.45L30.0542 29.1667ZM31.5719 32.2917H32.7761C33.1525 30.7031 34.0903 29.304 35.4167 28.3521V18.75H34.1927L31.5719 32.2917ZM36.1031 35.4854C36.4546 36.188 37.0236 36.7583 37.7253 37.1115C38.4271 37.4646 39.2241 37.5817 39.9978 37.4453C40.7715 37.309 41.4804 36.9264 42.0191 36.3546C42.5578 35.7828 42.8975 35.0523 42.9875 34.2719L36.1031 35.4854ZM11.4584 21.875C11.4584 21.5987 11.5681 21.3338 11.7635 21.1384C11.9588 20.9431 12.2238 20.8333 12.5 20.8333H21.875C22.1513 20.8333 22.4162 20.9431 22.6116 21.1384C22.8069 21.3338 22.9167 21.5987 22.9167 21.875V23.9583H11.4584V21.875ZM6.43127 32.2917C7.22294 28.7865 10.5344 26.0417 14.6729 26.0417H21.875V32.2583C21.8406 32.2806 21.8004 32.2922 21.7594 32.2917H6.43127ZM18.3531 34.399C18.4844 34.4031 18.6025 34.4076 18.7073 34.4125C18.5745 35.2728 18.1382 36.0572 17.4773 36.6238C16.8165 37.1904 15.9747 37.5019 15.1042 37.5019C14.2337 37.5019 13.3919 37.1904 12.7311 36.6238C12.0702 36.0572 11.6339 35.2728 11.5011 34.4125C11.6059 34.4069 11.724 34.4024 11.8552 34.399C12.6219 34.375 13.6563 34.375 15.1042 34.375C16.5521 34.375 17.5865 34.375 18.3542 34.399M42.0542 30.0135C41.3679 29.5329 40.5653 29.2449 39.73 29.1797C38.8947 29.1145 38.0571 29.2744 37.3046 29.6427C36.552 30.011 35.9119 30.5743 35.4509 31.2739C34.9899 31.9736 34.7249 32.784 34.6834 33.6208L43.6854 32.0333C43.3429 31.2195 42.7774 30.5201 42.0542 30.0135Z" fill="black"/>
</svg>
