<svg width="35" height="35" viewBox="0 0 35 35" fill="none" xmlns="http://www.w3.org/2000/svg">
<path d="M10.6575 30.7941C10.0421 30.7941 9.52342 30.5832 9.10148 30.1612C8.67953 29.7393 8.46905 29.2211 8.47002 28.6066C8.47099 27.9922 8.68148 27.4735 9.10148 27.0506C9.52342 26.6296 10.0421 26.4191 10.6575 26.4191C11.2729 26.4191 11.7911 26.6296 12.2121 27.0506C12.6331 27.4716 12.844 27.9903 12.845 28.6066C12.846 29.223 12.635 29.7412 12.2121 30.1612C11.7892 30.5812 11.271 30.7922 10.6575 30.7941ZM24.3425 30.7941C23.7281 30.7941 23.2099 30.5832 22.7879 30.1612C22.366 29.7393 22.155 29.2211 22.155 28.6066C22.155 27.9922 22.366 27.4735 22.7879 27.0506C23.2099 26.6296 23.7281 26.4191 24.3425 26.4191C24.957 26.4191 25.4756 26.6296 25.8986 27.0506C26.3195 27.4725 26.53 27.9912 26.53 28.6066C26.53 29.2211 26.3195 29.7393 25.8986 30.1612C25.4766 30.5832 24.9579 30.7941 24.3425 30.7941ZM8.57648 8.02081L12.4688 16.2108H22.1448C22.313 16.2108 22.4622 16.1685 22.5925 16.0839C22.7238 15.9994 22.8361 15.8827 22.9294 15.7339L26.7444 8.80685C26.8562 8.60074 26.8654 8.41845 26.7721 8.25998C26.6778 8.10054 26.5188 8.02081 26.2952 8.02081H8.57648ZM7.86335 6.56248H26.8509C27.4838 6.56248 27.9602 6.82109 28.28 7.33831C28.6009 7.85456 28.6179 8.38685 28.3311 8.93519L24.1631 16.5302C23.9522 16.885 23.678 17.1636 23.3406 17.3658C23.0033 17.568 22.6324 17.6691 22.2279 17.6691H11.8125L10.0406 20.9212C9.89092 21.1458 9.88606 21.3889 10.0261 21.6504C10.1661 21.9119 10.3765 22.0432 10.6575 22.0441H26.53V23.5025H10.6575C9.80683 23.5025 9.17196 23.1437 8.75294 22.4262C8.33391 21.7087 8.3237 20.9883 8.72231 20.265L10.9156 16.3566L5.55335 5.10415H2.91669V3.64581H6.47794L7.86335 6.56248Z" fill="black"/>
</svg>
