<svg width="50" height="50" viewBox="0 0 50 50" fill="none" xmlns="http://www.w3.org/2000/svg">
<path d="M37.5 16.6667C38.605 16.6667 39.6649 16.2277 40.4463 15.4463C41.2277 14.6649 41.6666 13.6051 41.6666 12.5C41.6666 11.3949 41.2277 10.3351 40.4463 9.55373C39.6649 8.77233 38.605 8.33334 37.5 8.33334C37.5 7.22827 37.061 6.16846 36.2796 5.38706C35.4982 4.60566 34.4384 4.16667 33.3333 4.16667C32.2282 4.16667 31.1684 4.60566 30.387 5.38706C29.6056 6.16846 29.1666 7.22827 29.1666 8.33334C29.1666 7.22827 28.7277 6.16846 27.9463 5.38706C27.1649 4.60566 26.105 4.16667 25 4.16667C23.8949 4.16667 22.8351 4.60566 22.0537 5.38706C21.2723 6.16846 20.8333 7.22827 20.8333 8.33334C20.8333 7.22827 20.3943 6.16846 19.6129 5.38706C18.8315 4.60566 17.7717 4.16667 16.6666 4.16667C15.5616 4.16667 14.5018 4.60566 13.7204 5.38706C12.939 6.16846 12.5 7.22827 12.5 8.33334C11.3949 8.33334 10.3351 8.77233 9.5537 9.55373C8.7723 10.3351 8.33331 11.3949 8.33331 12.5C8.33331 13.6051 8.7723 14.6649 9.5537 15.4463C10.3351 16.2277 11.3949 16.6667 12.5 16.6667M20.8333 45.8333L18.75 16.6667M29.1666 45.8333L31.25 16.6667" stroke="black" stroke-width="2" stroke-linecap="round" stroke-linejoin="round"/>
<path d="M41.6667 16.6667C42.7083 16.6667 43.5417 17.5 43.3333 18.75L37.9167 43.75C37.7083 44.7917 36.4583 45.8333 35.4167 45.8333H14.5833C13.3333 45.8333 12.2917 45 12.0833 43.75L6.66666 18.75C6.45833 17.5 7.29166 16.6667 8.33333 16.6667H41.6667Z" stroke="black" stroke-width="2" stroke-linecap="round" stroke-linejoin="round"/>
</svg>
